solid OpenSCAD_Model
  facet normal 0 0 -1
    outer loop
      vertex -22.5 -2.93893 0.954914
      vertex 22.501 2.93893 0.954914
      vertex 22.501 -2.93893 0.954914
    endloop
  endfacet
  facet normal -0 0 -1
    outer loop
      vertex 22.501 2.93893 0.954914
      vertex -22.5 -2.93893 0.954914
      vertex -22.5 2.93893 0.954914
    endloop
  endfacet
  facet normal -1 0 0
    outer loop
      vertex -22.5 2.93893 0.954914
      vertex -22.5 0 10
      vertex -22.5 4.75528 6.54508
    endloop
  endfacet
  facet normal -1 0 0
    outer loop
      vertex -22.5 -2.93893 0.954914
      vertex -22.5 0 10
      vertex -22.5 2.93893 0.954914
    endloop
  endfacet
  facet normal -1 0 0
    outer loop
      vertex -22.5 0 10
      vertex -22.5 -2.93893 0.954914
      vertex -22.5 -4.75528 6.54508
    endloop
  endfacet
  facet normal 0 0.951057 -0.309016
    outer loop
      vertex 22.501 2.93893 0.954914
      vertex -22.5 4.75528 6.54508
      vertex 22.501 4.75528 6.54508
    endloop
  endfacet
  facet normal 0 0.951057 -0.309016
    outer loop
      vertex -22.5 4.75528 6.54508
      vertex 22.501 2.93893 0.954914
      vertex -22.5 2.93893 0.954914
    endloop
  endfacet
  facet normal -0 0.587786 0.809016
    outer loop
      vertex -22.5 4.75528 6.54508
      vertex 22.501 0 10
      vertex 22.501 4.75528 6.54508
    endloop
  endfacet
  facet normal 0 0.587786 0.809016
    outer loop
      vertex 22.501 0 10
      vertex -22.5 4.75528 6.54508
      vertex -22.5 0 10
    endloop
  endfacet
  facet normal 0 -0.587786 0.809016
    outer loop
      vertex -22.5 0 10
      vertex 22.501 -4.75528 6.54508
      vertex 22.501 0 10
    endloop
  endfacet
  facet normal 0 -0.587786 0.809016
    outer loop
      vertex 22.501 -4.75528 6.54508
      vertex -22.5 0 10
      vertex -22.5 -4.75528 6.54508
    endloop
  endfacet
  facet normal 0 -0.951057 -0.309016
    outer loop
      vertex -22.5 -2.93893 0.954914
      vertex 22.501 -4.75528 6.54508
      vertex -22.5 -4.75528 6.54508
    endloop
  endfacet
  facet normal 0 -0.951057 -0.309016
    outer loop
      vertex 22.501 -4.75528 6.54508
      vertex -22.5 -2.93893 0.954914
      vertex 22.501 -2.93893 0.954914
    endloop
  endfacet
  facet normal 1 0 0
    outer loop
      vertex 22.501 0 10
      vertex 22.501 2.93893 0.954914
      vertex 22.501 4.75528 6.54508
    endloop
  endfacet
  facet normal 1 0 0
    outer loop
      vertex 22.501 0 10
      vertex 22.501 -2.93893 0.954914
      vertex 22.501 2.93893 0.954914
    endloop
  endfacet
  facet normal 1 0 -0
    outer loop
      vertex 22.501 -2.93893 0.954914
      vertex 22.501 0 10
      vertex 22.501 -4.75528 6.54508
    endloop
  endfacet
  facet normal 0 0 -1
    outer loop
      vertex -22.5 12.0611 0.954914
      vertex 22.501 17.9389 0.954914
      vertex 22.501 12.0611 0.954914
    endloop
  endfacet
  facet normal -0 0 -1
    outer loop
      vertex 22.501 17.9389 0.954914
      vertex -22.5 12.0611 0.954914
      vertex -22.5 17.9389 0.954914
    endloop
  endfacet
  facet normal -1 0 0
    outer loop
      vertex -22.5 17.9389 0.954914
      vertex -22.5 15 10
      vertex -22.5 19.7553 6.54508
    endloop
  endfacet
  facet normal -1 0 0
    outer loop
      vertex -22.5 12.0611 0.954914
      vertex -22.5 15 10
      vertex -22.5 17.9389 0.954914
    endloop
  endfacet
  facet normal -1 0 0
    outer loop
      vertex -22.5 15 10
      vertex -22.5 12.0611 0.954914
      vertex -22.5 10.2447 6.54508
    endloop
  endfacet
  facet normal 0 0.951054 -0.309024
    outer loop
      vertex 22.501 17.9389 0.954914
      vertex -22.5 19.7553 6.54508
      vertex 22.501 19.7553 6.54508
    endloop
  endfacet
  facet normal 0 0.951054 -0.309024
    outer loop
      vertex -22.5 19.7553 6.54508
      vertex 22.501 17.9389 0.954914
      vertex -22.5 17.9389 0.954914
    endloop
  endfacet
  facet normal 1 0 0
    outer loop
      vertex 22.501 15 10
      vertex 22.501 17.9389 0.954914
      vertex 22.501 19.7553 6.54508
    endloop
  endfacet
  facet normal 1 0 0
    outer loop
      vertex 22.501 15 10
      vertex 22.501 12.0611 0.954914
      vertex 22.501 17.9389 0.954914
    endloop
  endfacet
  facet normal 1 0 -0
    outer loop
      vertex 22.501 12.0611 0.954914
      vertex 22.501 15 10
      vertex 22.501 10.2447 6.54508
    endloop
  endfacet
  facet normal 0 -0.587784 0.809018
    outer loop
      vertex -22.5 15 10
      vertex 22.501 10.2447 6.54508
      vertex 22.501 15 10
    endloop
  endfacet
  facet normal 0 -0.587784 0.809018
    outer loop
      vertex 22.501 10.2447 6.54508
      vertex -22.5 15 10
      vertex -22.5 10.2447 6.54508
    endloop
  endfacet
  facet normal -0 0.587784 0.809018
    outer loop
      vertex -22.5 19.7553 6.54508
      vertex 22.501 15 10
      vertex 22.501 19.7553 6.54508
    endloop
  endfacet
  facet normal 0 0.587784 0.809018
    outer loop
      vertex 22.501 15 10
      vertex -22.5 19.7553 6.54508
      vertex -22.5 15 10
    endloop
  endfacet
  facet normal 0 -0.951054 -0.309024
    outer loop
      vertex -22.5 12.0611 0.954914
      vertex 22.501 10.2447 6.54508
      vertex -22.5 10.2447 6.54508
    endloop
  endfacet
  facet normal 0 -0.951054 -0.309024
    outer loop
      vertex 22.501 10.2447 6.54508
      vertex -22.5 12.0611 0.954914
      vertex 22.501 12.0611 0.954914
    endloop
  endfacet
  facet normal 0 0 -1
    outer loop
      vertex -22.5 27.0611 0.954914
      vertex 22.501 32.9389 0.954914
      vertex 22.501 27.0611 0.954914
    endloop
  endfacet
  facet normal -0 0 -1
    outer loop
      vertex 22.501 32.9389 0.954914
      vertex -22.5 27.0611 0.954914
      vertex -22.5 32.9389 0.954914
    endloop
  endfacet
  facet normal -1 0 0
    outer loop
      vertex -22.5 32.9389 0.954914
      vertex -22.5 30 10
      vertex -22.5 34.7553 6.54508
    endloop
  endfacet
  facet normal -1 0 0
    outer loop
      vertex -22.5 27.0611 0.954914
      vertex -22.5 30 10
      vertex -22.5 32.9389 0.954914
    endloop
  endfacet
  facet normal -1 0 0
    outer loop
      vertex -22.5 30 10
      vertex -22.5 27.0611 0.954914
      vertex -22.5 25.2447 6.54508
    endloop
  endfacet
  facet normal 0 0.951054 -0.309024
    outer loop
      vertex 22.501 32.9389 0.954914
      vertex -22.5 34.7553 6.54508
      vertex 22.501 34.7553 6.54508
    endloop
  endfacet
  facet normal 0 0.951054 -0.309024
    outer loop
      vertex -22.5 34.7553 6.54508
      vertex 22.501 32.9389 0.954914
      vertex -22.5 32.9389 0.954914
    endloop
  endfacet
  facet normal 0 -0.951054 -0.309024
    outer loop
      vertex -22.5 27.0611 0.954914
      vertex 22.501 25.2447 6.54508
      vertex -22.5 25.2447 6.54508
    endloop
  endfacet
  facet normal 0 -0.951054 -0.309024
    outer loop
      vertex 22.501 25.2447 6.54508
      vertex -22.5 27.0611 0.954914
      vertex 22.501 27.0611 0.954914
    endloop
  endfacet
  facet normal 1 0 0
    outer loop
      vertex 22.501 30 10
      vertex 22.501 32.9389 0.954914
      vertex 22.501 34.7553 6.54508
    endloop
  endfacet
  facet normal 1 0 0
    outer loop
      vertex 22.501 30 10
      vertex 22.501 27.0611 0.954914
      vertex 22.501 32.9389 0.954914
    endloop
  endfacet
  facet normal 1 0 -0
    outer loop
      vertex 22.501 27.0611 0.954914
      vertex 22.501 30 10
      vertex 22.501 25.2447 6.54508
    endloop
  endfacet
  facet normal 0 -0.587784 0.809018
    outer loop
      vertex -22.5 30 10
      vertex 22.501 25.2447 6.54508
      vertex 22.501 30 10
    endloop
  endfacet
  facet normal 0 -0.587784 0.809018
    outer loop
      vertex 22.501 25.2447 6.54508
      vertex -22.5 30 10
      vertex -22.5 25.2447 6.54508
    endloop
  endfacet
  facet normal -0 0.587784 0.809018
    outer loop
      vertex -22.5 34.7553 6.54508
      vertex 22.501 30 10
      vertex 22.501 34.7553 6.54508
    endloop
  endfacet
  facet normal 0 0.587784 0.809018
    outer loop
      vertex 22.501 30 10
      vertex -22.5 34.7553 6.54508
      vertex -22.5 30 10
    endloop
  endfacet
  facet normal 0 0 -1
    outer loop
      vertex -22.5 -17.9389 0.954914
      vertex 22.501 -12.0611 0.954914
      vertex 22.501 -17.9389 0.954914
    endloop
  endfacet
  facet normal -0 0 -1
    outer loop
      vertex 22.501 -12.0611 0.954914
      vertex -22.5 -17.9389 0.954914
      vertex -22.5 -12.0611 0.954914
    endloop
  endfacet
  facet normal -1 0 0
    outer loop
      vertex -22.5 -12.0611 0.954914
      vertex -22.5 -15 10
      vertex -22.5 -10.2447 6.54508
    endloop
  endfacet
  facet normal -1 0 0
    outer loop
      vertex -22.5 -17.9389 0.954914
      vertex -22.5 -15 10
      vertex -22.5 -12.0611 0.954914
    endloop
  endfacet
  facet normal -1 0 0
    outer loop
      vertex -22.5 -15 10
      vertex -22.5 -17.9389 0.954914
      vertex -22.5 -19.7553 6.54508
    endloop
  endfacet
  facet normal 0 0.951054 -0.309024
    outer loop
      vertex 22.501 -12.0611 0.954914
      vertex -22.5 -10.2447 6.54508
      vertex 22.501 -10.2447 6.54508
    endloop
  endfacet
  facet normal 0 0.951054 -0.309024
    outer loop
      vertex -22.5 -10.2447 6.54508
      vertex 22.501 -12.0611 0.954914
      vertex -22.5 -12.0611 0.954914
    endloop
  endfacet
  facet normal 1 0 0
    outer loop
      vertex 22.501 -15 10
      vertex 22.501 -12.0611 0.954914
      vertex 22.501 -10.2447 6.54508
    endloop
  endfacet
  facet normal 1 0 0
    outer loop
      vertex 22.501 -15 10
      vertex 22.501 -17.9389 0.954914
      vertex 22.501 -12.0611 0.954914
    endloop
  endfacet
  facet normal 1 0 -0
    outer loop
      vertex 22.501 -17.9389 0.954914
      vertex 22.501 -15 10
      vertex 22.501 -19.7553 6.54508
    endloop
  endfacet
  facet normal 0 -0.587784 0.809018
    outer loop
      vertex -22.5 -15 10
      vertex 22.501 -19.7553 6.54508
      vertex 22.501 -15 10
    endloop
  endfacet
  facet normal 0 -0.587784 0.809018
    outer loop
      vertex 22.501 -19.7553 6.54508
      vertex -22.5 -15 10
      vertex -22.5 -19.7553 6.54508
    endloop
  endfacet
  facet normal -0 0.587784 0.809018
    outer loop
      vertex -22.5 -10.2447 6.54508
      vertex 22.501 -15 10
      vertex 22.501 -10.2447 6.54508
    endloop
  endfacet
  facet normal 0 0.587784 0.809018
    outer loop
      vertex 22.501 -15 10
      vertex -22.5 -10.2447 6.54508
      vertex -22.5 -15 10
    endloop
  endfacet
  facet normal 0 -0.951054 -0.309024
    outer loop
      vertex -22.5 -17.9389 0.954914
      vertex 22.501 -19.7553 6.54508
      vertex -22.5 -19.7553 6.54508
    endloop
  endfacet
  facet normal 0 -0.951054 -0.309024
    outer loop
      vertex 22.501 -19.7553 6.54508
      vertex -22.5 -17.9389 0.954914
      vertex 22.501 -17.9389 0.954914
    endloop
  endfacet
  facet normal 0 0 -1
    outer loop
      vertex -22.5 -32.9389 0.954914
      vertex 22.501 -27.0611 0.954914
      vertex 22.501 -32.9389 0.954914
    endloop
  endfacet
  facet normal -0 0 -1
    outer loop
      vertex 22.501 -27.0611 0.954914
      vertex -22.5 -32.9389 0.954914
      vertex -22.5 -27.0611 0.954914
    endloop
  endfacet
  facet normal -1 0 0
    outer loop
      vertex -22.5 -27.0611 0.954914
      vertex -22.5 -30 10
      vertex -22.5 -25.2447 6.54508
    endloop
  endfacet
  facet normal -1 0 0
    outer loop
      vertex -22.5 -32.9389 0.954914
      vertex -22.5 -30 10
      vertex -22.5 -27.0611 0.954914
    endloop
  endfacet
  facet normal -1 0 0
    outer loop
      vertex -22.5 -30 10
      vertex -22.5 -32.9389 0.954914
      vertex -22.5 -34.7553 6.54508
    endloop
  endfacet
  facet normal 0 0.951054 -0.309024
    outer loop
      vertex 22.501 -27.0611 0.954914
      vertex -22.5 -25.2447 6.54508
      vertex 22.501 -25.2447 6.54508
    endloop
  endfacet
  facet normal 0 0.951054 -0.309024
    outer loop
      vertex -22.5 -25.2447 6.54508
      vertex 22.501 -27.0611 0.954914
      vertex -22.5 -27.0611 0.954914
    endloop
  endfacet
  facet normal 1 0 0
    outer loop
      vertex 22.501 -30 10
      vertex 22.501 -27.0611 0.954914
      vertex 22.501 -25.2447 6.54508
    endloop
  endfacet
  facet normal 1 0 0
    outer loop
      vertex 22.501 -30 10
      vertex 22.501 -32.9389 0.954914
      vertex 22.501 -27.0611 0.954914
    endloop
  endfacet
  facet normal 1 0 -0
    outer loop
      vertex 22.501 -32.9389 0.954914
      vertex 22.501 -30 10
      vertex 22.501 -34.7553 6.54508
    endloop
  endfacet
  facet normal -0 0.587784 0.809018
    outer loop
      vertex -22.5 -25.2447 6.54508
      vertex 22.501 -30 10
      vertex 22.501 -25.2447 6.54508
    endloop
  endfacet
  facet normal 0 0.587784 0.809018
    outer loop
      vertex 22.501 -30 10
      vertex -22.5 -25.2447 6.54508
      vertex -22.5 -30 10
    endloop
  endfacet
  facet normal 0 -0.587784 0.809018
    outer loop
      vertex -22.5 -30 10
      vertex 22.501 -34.7553 6.54508
      vertex 22.501 -30 10
    endloop
  endfacet
  facet normal 0 -0.587784 0.809018
    outer loop
      vertex 22.501 -34.7553 6.54508
      vertex -22.5 -30 10
      vertex -22.5 -34.7553 6.54508
    endloop
  endfacet
  facet normal 0 -0.951054 -0.309024
    outer loop
      vertex -22.5 -32.9389 0.954914
      vertex 22.501 -34.7553 6.54508
      vertex -22.5 -34.7553 6.54508
    endloop
  endfacet
  facet normal 0 -0.951054 -0.309024
    outer loop
      vertex 22.501 -34.7553 6.54508
      vertex -22.5 -32.9389 0.954914
      vertex 22.501 -32.9389 0.954914
    endloop
  endfacet
endsolid OpenSCAD_Model
