solid OpenSCAD_Model
  facet normal 0 0 -1
    outer loop
      vertex -16 72.75 0
      vertex -15 73.75 0
      vertex -15 72.75 0
    endloop
  endfacet
  facet normal 0 0 -1
    outer loop
      vertex -15 -72.75 0
      vertex -16 72.75 0
      vertex -15 72.75 0
    endloop
  endfacet
  facet normal 0 0 -1
    outer loop
      vertex -15 73.75 0
      vertex 15 72.75 0
      vertex -15 72.75 0
    endloop
  endfacet
  facet normal 0 0 -1
    outer loop
      vertex -15 -72.75 0
      vertex -16 -72.75 0
      vertex -16 72.75 0
    endloop
  endfacet
  facet normal -0 0 -1
    outer loop
      vertex 16 -72.75 0
      vertex 15 -73.75 0
      vertex 15 -72.75 0
    endloop
  endfacet
  facet normal -0 -0 -1
    outer loop
      vertex 15 -72.75 0
      vertex 15 -73.75 0
      vertex -15 -72.75 0
    endloop
  endfacet
  facet normal 0 0 -1
    outer loop
      vertex 16 -72.75 0
      vertex 15 72.75 0
      vertex 16 72.75 0
    endloop
  endfacet
  facet normal 0 0 -1
    outer loop
      vertex 15 -73.75 0
      vertex -15 -73.75 0
      vertex -15 -72.75 0
    endloop
  endfacet
  facet normal -0 -0 -1
    outer loop
      vertex -15 -72.75 0
      vertex -15 -73.75 0
      vertex -16 -72.75 0
    endloop
  endfacet
  facet normal 0 0 -1
    outer loop
      vertex -15 73.75 0
      vertex 15 73.75 0
      vertex 15 72.75 0
    endloop
  endfacet
  facet normal 0 0 -1
    outer loop
      vertex 15 -72.75 0
      vertex 15 72.75 0
      vertex 16 -72.75 0
    endloop
  endfacet
  facet normal 0 0 -1
    outer loop
      vertex 15 72.75 0
      vertex 15 73.75 0
      vertex 16 72.75 0
    endloop
  endfacet
  facet normal 0 -0 1
    outer loop
      vertex -15 72.75 10
      vertex -15 73.75 10
      vertex -16 72.75 10
    endloop
  endfacet
  facet normal 0 0 1
    outer loop
      vertex -15 72.75 10
      vertex -16 72.75 10
      vertex -15 -72.75 10
    endloop
  endfacet
  facet normal 0 0 1
    outer loop
      vertex -15 72.75 10
      vertex 15 72.75 10
      vertex -15 73.75 10
    endloop
  endfacet
  facet normal 0 0 1
    outer loop
      vertex -16 72.75 10
      vertex -16 -72.75 10
      vertex -15 -72.75 10
    endloop
  endfacet
  facet normal -0 0 1
    outer loop
      vertex 15 -72.75 10
      vertex 15 -73.75 10
      vertex 16 -72.75 10
    endloop
  endfacet
  facet normal -0 0 1
    outer loop
      vertex -15 -72.75 10
      vertex 15 -73.75 10
      vertex 15 -72.75 10
    endloop
  endfacet
  facet normal 0 0 1
    outer loop
      vertex 16 72.75 10
      vertex 15 72.75 10
      vertex 16 -72.75 10
    endloop
  endfacet
  facet normal 0 0 1
    outer loop
      vertex -15 -72.75 10
      vertex -15 -73.75 10
      vertex 15 -73.75 10
    endloop
  endfacet
  facet normal -0 0 1
    outer loop
      vertex -16 -72.75 10
      vertex -15 -73.75 10
      vertex -15 -72.75 10
    endloop
  endfacet
  facet normal 0 -0 1
    outer loop
      vertex 15 72.75 10
      vertex 15 73.75 10
      vertex -15 73.75 10
    endloop
  endfacet
  facet normal 0 0 1
    outer loop
      vertex 16 -72.75 10
      vertex 15 72.75 10
      vertex 15 -72.75 10
    endloop
  endfacet
  facet normal 0 0 1
    outer loop
      vertex 16 72.75 10
      vertex 15 73.75 10
      vertex 15 72.75 10
    endloop
  endfacet
  facet normal 1 0 0
    outer loop
      vertex 16 72.75 0
      vertex 16 -72.75 10
      vertex 16 -72.75 0
    endloop
  endfacet
  facet normal 1 0 -0
    outer loop
      vertex 16 72.75 0
      vertex 16 72.75 10
      vertex 16 -72.75 10
    endloop
  endfacet
  facet normal 0.707107 0.707107 0
    outer loop
      vertex 15 73.75 0
      vertex 16 72.75 10
      vertex 16 72.75 0
    endloop
  endfacet
  facet normal 0.707107 0.707107 -0
    outer loop
      vertex 15 73.75 0
      vertex 15 73.75 10
      vertex 16 72.75 10
    endloop
  endfacet
  facet normal 0 1 0
    outer loop
      vertex -15 73.75 0
      vertex 15 73.75 10
      vertex 15 73.75 0
    endloop
  endfacet
  facet normal 0 1 0
    outer loop
      vertex -15 73.75 0
      vertex -15 73.75 10
      vertex 15 73.75 10
    endloop
  endfacet
  facet normal -0.707107 0.707107 0
    outer loop
      vertex -16 72.75 0
      vertex -15 73.75 10
      vertex -15 73.75 0
    endloop
  endfacet
  facet normal -0.707107 0.707107 0
    outer loop
      vertex -16 72.75 0
      vertex -16 72.75 10
      vertex -15 73.75 10
    endloop
  endfacet
  facet normal -1 0 0
    outer loop
      vertex -16 -72.75 0
      vertex -16 72.75 10
      vertex -16 72.75 0
    endloop
  endfacet
  facet normal -1 0 0
    outer loop
      vertex -16 -72.75 0
      vertex -16 -72.75 10
      vertex -16 72.75 10
    endloop
  endfacet
  facet normal -0.707107 -0.707107 0
    outer loop
      vertex -15 -73.75 0
      vertex -16 -72.75 10
      vertex -16 -72.75 0
    endloop
  endfacet
  facet normal -0.707107 -0.707107 0
    outer loop
      vertex -15 -73.75 0
      vertex -15 -73.75 10
      vertex -16 -72.75 10
    endloop
  endfacet
  facet normal 0 -1 0
    outer loop
      vertex 15 -73.75 0
      vertex -15 -73.75 10
      vertex -15 -73.75 0
    endloop
  endfacet
  facet normal 0 -1 0
    outer loop
      vertex 15 -73.75 0
      vertex 15 -73.75 10
      vertex -15 -73.75 10
    endloop
  endfacet
  facet normal 0.707107 -0.707107 0
    outer loop
      vertex 16 -72.75 0
      vertex 15 -73.75 10
      vertex 15 -73.75 0
    endloop
  endfacet
  facet normal 0.707107 -0.707107 0
    outer loop
      vertex 16 -72.75 0
      vertex 16 -72.75 10
      vertex 15 -73.75 10
    endloop
  endfacet
  facet normal 1 0 -0
    outer loop
      vertex -15 72.75 0
      vertex -15 72.75 10
      vertex -15 -72.75 0
    endloop
  endfacet
  facet normal 1 -0 0
    outer loop
      vertex -15 -72.75 10
      vertex -15 -72.75 0
      vertex -15 72.75 10
    endloop
  endfacet
  facet normal 0 -1 0
    outer loop
      vertex 15 72.75 0
      vertex 15 72.75 10
      vertex -15 72.75 0
    endloop
  endfacet
  facet normal 0 -1 0
    outer loop
      vertex -15 72.75 10
      vertex -15 72.75 0
      vertex 15 72.75 10
    endloop
  endfacet
  facet normal -1 0 0
    outer loop
      vertex 15 -72.75 0
      vertex 15 -72.75 10
      vertex 15 72.75 0
    endloop
  endfacet
  facet normal -1 -0 -0
    outer loop
      vertex 15 72.75 10
      vertex 15 72.75 0
      vertex 15 -72.75 10
    endloop
  endfacet
  facet normal 0 1 0
    outer loop
      vertex -15 -72.75 0
      vertex -15 -72.75 10
      vertex 15 -72.75 0
    endloop
  endfacet
  facet normal 0 1 0
    outer loop
      vertex 15 -72.75 10
      vertex 15 -72.75 0
      vertex -15 -72.75 10
    endloop
  endfacet
endsolid OpenSCAD_Model
