<?xml version="1.0" encoding="utf-8"?>
<!-- Generator: Adobe Illustrator 19.2.0, SVG Export Plug-In . SVG Version: 6.00 Build 0)  -->
<svg version="1.1" id="Layer_1" xmlns="http://www.w3.org/2000/svg" xmlns:xlink="http://www.w3.org/1999/xlink" x="0px" y="0px"
	 viewBox="0 0 117.8 113.7" style="enable-background:new 0 0 117.8 113.7;" xml:space="preserve">
<style type="text/css">
	.st0{fill:#EE2A24;}
</style>
<g>
	<path class="st0" d="M6.8,32.9V19.7H5.1v13.2H0V0h11.9v13.2h-1.7v3.3h1.7v16.4H6.8z M5.1,6.6v6.6h1.7V6.6H5.1z"/>
	<path class="st0" d="M25.6,6.6v26.3H13.7V16.4h6.8v-3.3h-6.8V6.6H25.6z M18.8,23v3.3h1.7V23H18.8z"/>
	<path class="st0" d="M27.3,32.9v-6.6h6.8V23h-6.8V6.6h11.9v6.6h-6.8v3.3h6.8v16.4H27.3z"/>
	<path class="st0" d="M41,42.7V6.6h11.9v26.3h-6.8v9.9H41z M47.8,26.3V13.2h-1.7v13.2H47.8z"/>
	<path class="st0" d="M59.7,0v6.6h6.8v26.3H54.6V0H59.7z M59.7,13.2v13.2h1.7V13.2H59.7z"/>
	<path class="st0" d="M68.3,32.9V6.6h11.9V23h-6.8v3.3h6.8v6.6H68.3z M75.1,16.4v-3.3h-1.7v3.3H75.1z"/>
	<path class="st0" d="M92.2,6.6v6.6h-5.1v19.7h-5.1V6.6H92.2z"/>
	<path class="st0" d="M104.1,6.6v6.6H99v19.7h-5.1V6.6H104.1z"/>
	<path class="st0" d="M117.8,6.6v32.9h-11.9v-6.6h6.8v-3.3h-6.8v-23h5.1V23h1.7V6.6H117.8z"/>
	<path class="st0" d="M29.9,73.3V60.1h-1.7v13.2H23V40.4h5.1v13.2h1.7V40.4H35v13.2h-1.7v3.3H35v16.4H29.9z"/>
	<path class="st0" d="M36.7,47v-6.6h5.1V47H36.7z M36.7,73.1v-23h5.1v23H36.7z"/>
	<path class="st0" d="M55.5,47v6.6h-6.8v13.2h6.8v6.6H43.5V47H55.5z"/>
	<path class="st0" d="M64,73.3v-9.9h-1.7v9.9h-5.1V40.4h5.1v16.4H64V47h5.1v9.9h-1.7v3.3h1.7v13.2H64z"/>
	<path class="st0" d="M70.8,73.3V47h11.9v16.4H76v3.3h6.8v6.6H70.8z M77.7,56.8v-3.3H76v3.3H77.7z"/>
	<path class="st0" d="M94.7,47v6.6h-5.1v19.7h-5.1V47H94.7z"/>
	<path class="st0" d="M52.9,80.8v13.2h-1.7v3.3h1.7v16.4H41V80.8H52.9z M46.1,87.4v6.6h1.7v-6.6H46.1z M46.1,100.5v6.6h1.7v-6.6
		H46.1z"/>
	<path class="st0" d="M66.6,87.4v26.3H54.6V87.4H66.6z M59.7,93.9v13.2h1.7V93.9H59.7z"/>
	<path class="st0" d="M73.4,107.1h3.4v6.6h-8.5V80.8h5.1v6.6h3.4v6.6h-3.4V107.1z"/>
</g>
</svg>
